<?xml version="1.0" encoding="utf-8"?>
<svg xmlns="http://www.w3.org/2000/svg" viewBox="0 0 128 128">
  <circle cx="24" cy="30" r="12" fill="#EF6C00" />
  <circle cx="24" cy="30" r="7" fill="#BF360C" opacity="0.3" />
  <circle cx="104" cy="30" r="12" fill="#EF6C00" />
  <circle cx="104" cy="30" r="7" fill="#BF360C" opacity="0.3" />
  <rect x="20" y="24" width="88" height="88" rx="28" ry="28" fill="#EF6C00" />
  <line x1="52" y1="34" x2="48" y2="44" stroke="#BF360C" stroke-width="2.5" stroke-linecap="round" />
  <line x1="64" y1="32" x2="64" y2="42" stroke="#BF360C" stroke-width="2.5" stroke-linecap="round" />
  <line x1="76" y1="34" x2="80" y2="44" stroke="#BF360C" stroke-width="2.5" stroke-linecap="round" />
  <line x1="24" y1="56" x2="30" y2="66" stroke="#BF360C" stroke-width="2" stroke-linecap="round" />
  <line x1="22" y1="68" x2="28" y2="78" stroke="#BF360C" stroke-width="2" stroke-linecap="round" />
  <line x1="104" y1="56" x2="98" y2="66" stroke="#BF360C" stroke-width="2" stroke-linecap="round" />
  <line x1="106" y1="68" x2="100" y2="78" stroke="#BF360C" stroke-width="2" stroke-linecap="round" />
  <circle cx="36" cy="78" r="9" fill="#FFF3E0" opacity="0.6" />
  <circle cx="92" cy="78" r="9" fill="#FFF3E0" opacity="0.6" />
  <circle cx="46" cy="62" r="10" fill="white" />
  <circle cx="82" cy="62" r="10" fill="white" />
  <circle cx="46" cy="63" r="5" fill="#2C2C2C" />
  <circle cx="82" cy="63" r="5" fill="#2C2C2C" />
  <circle cx="48" cy="61" r="2" fill="white" />
  <circle cx="84" cy="61" r="2" fill="white" />
  <ellipse cx="64" cy="74" rx="4" ry="3" fill="#BF360C" />
  <ellipse cx="64" cy="88" rx="7" ry="9" fill="#2C2C2C" />
</svg>
