<?xml version="1.0" encoding="utf-8"?>
<svg xmlns="http://www.w3.org/2000/svg" viewBox="0 0 128 128">
  <line x1="48" y1="26" x2="40" y2="8" stroke="#F9A825" stroke-width="2.5" stroke-linecap="round" />
  <circle cx="40" cy="7" r="4" fill="#F9A825" />
  <line x1="80" y1="26" x2="88" y2="8" stroke="#F9A825" stroke-width="2.5" stroke-linecap="round" />
  <circle cx="88" cy="7" r="4" fill="#F9A825" />
  <rect x="20" y="24" width="88" height="88" rx="28" ry="28" fill="#FDD835" />
  <rect x="28" y="42" width="72" height="8" rx="4" fill="#F9A825" opacity="0.3" />
  <circle cx="36" cy="78" r="9" fill="#FFF9C4" opacity="0.6" />
  <circle cx="92" cy="78" r="9" fill="#FFF9C4" opacity="0.6" />
  <circle cx="46" cy="66" r="7" fill="#2C2C2C" />
  <circle cx="82" cy="66" r="7" fill="#2C2C2C" />
  <circle cx="48" cy="64" r="2.5" fill="white" />
  <circle cx="84" cy="64" r="2.5" fill="white" />
  <line x1="36" y1="54" x2="52" y2="56" stroke="#2C2C2C" stroke-width="2.5" stroke-linecap="round" />
  <line x1="92" y1="54" x2="76" y2="56" stroke="#2C2C2C" stroke-width="2.5" stroke-linecap="round" />
  <ellipse cx="64" cy="74" rx="4" ry="3" fill="#F9A825" />
  <path d="M52 90 Q64 80 76 90" stroke="#2C2C2C" stroke-width="2.5" fill="none" stroke-linecap="round" />
</svg>
