<?xml version="1.0" encoding="utf-8"?>
<svg xmlns="http://www.w3.org/2000/svg" viewBox="0 0 128 128">
  <line x1="46" y1="28" x2="42" y2="8" stroke="#FF9800" stroke-width="3" stroke-linecap="round" />
  <circle cx="42" cy="6" r="4" fill="#FF9800" />
  <line x1="82" y1="28" x2="86" y2="8" stroke="#FF9800" stroke-width="3" stroke-linecap="round" />
  <circle cx="86" cy="6" r="4" fill="#FF9800" />
  <rect x="20" y="24" width="88" height="88" rx="28" ry="28" fill="#FFCC80" />
  <circle cx="34" cy="50" r="5" fill="#FF9800" opacity="0.2" />
  <circle cx="94" cy="50" r="5" fill="#FF9800" opacity="0.2" />
  <circle cx="40" cy="94" r="4" fill="#FF9800" opacity="0.2" />
  <circle cx="88" cy="94" r="4" fill="#FF9800" opacity="0.2" />
  <circle cx="64" cy="42" r="4" fill="#FF9800" opacity="0.15" />
  <circle cx="36" cy="78" r="9" fill="#FFF3E0" opacity="0.6" />
  <circle cx="92" cy="78" r="9" fill="#FFF3E0" opacity="0.6" />
  <circle cx="46" cy="66" r="6" fill="#2C2C2C" />
  <circle cx="82" cy="66" r="6" fill="#2C2C2C" />
  <circle cx="48" cy="64" r="2" fill="white" />
  <circle cx="84" cy="64" r="2" fill="white" />
  <line x1="36" y1="56" x2="54" y2="52" stroke="#2C2C2C" stroke-width="3" stroke-linecap="round" />
  <line x1="92" y1="56" x2="74" y2="52" stroke="#2C2C2C" stroke-width="3" stroke-linecap="round" />
  <ellipse cx="64" cy="74" rx="4" ry="3" fill="#FF9800" />
  <path d="M48 86 L56 82 L64 86 L72 82 L80 86" stroke="#2C2C2C" stroke-width="2.5" fill="none" stroke-linecap="round" />
</svg>
