<?xml version="1.0" encoding="utf-8"?>
<svg xmlns="http://www.w3.org/2000/svg" viewBox="0 0 128 128">
  <ellipse cx="42" cy="10" rx="10" ry="24" fill="#FFCDD2" />
  <ellipse cx="42" cy="10" rx="5" ry="16" fill="#FFEBEE" />
  <ellipse cx="86" cy="10" rx="10" ry="24" fill="#FFCDD2" />
  <ellipse cx="86" cy="10" rx="5" ry="16" fill="#FFEBEE" />
  <rect x="20" y="24" width="88" height="88" rx="28" ry="28" fill="#FFCDD2" />
  <circle cx="36" cy="78" r="9" fill="#FFEBEE" opacity="0.6" />
  <circle cx="92" cy="78" r="9" fill="#FFEBEE" opacity="0.6" />
  <circle cx="46" cy="66" r="6" fill="#2C2C2C" />
  <circle cx="82" cy="66" r="6" fill="#2C2C2C" />
  <circle cx="48" cy="64" r="2" fill="white" />
  <circle cx="84" cy="64" r="2" fill="white" />
  <line x1="36" y1="56" x2="54" y2="52" stroke="#2C2C2C" stroke-width="3" stroke-linecap="round" />
  <line x1="92" y1="56" x2="74" y2="52" stroke="#2C2C2C" stroke-width="3" stroke-linecap="round" />
  <ellipse cx="64" cy="74" rx="4" ry="3" fill="#EF5350" />
  <path d="M48 86 L56 82 L64 86 L72 82 L80 86" stroke="#2C2C2C" stroke-width="2.5" fill="none" stroke-linecap="round" />
</svg>
