<svg xmlns="http://www.w3.org/2000/svg" viewBox="0 0 762 762" fill="none" shape-rendering="auto"><metadata xmlns:rdf="http://www.w3.org/1999/02/22-rdf-syntax-ns#" xmlns:xsi="http://www.w3.org/2001/XMLSchema-instance" xmlns:dc="http://purl.org/dc/elements/1.1/" xmlns:dcterms="http://purl.org/dc/terms/"><rdf:RDF><rdf:Description><dc:title>Adventurer</dc:title><dc:creator>Lisa Wischofsky</dc:creator><dc:source xsi:type="dcterms:URI">https://www.figma.com/community/file/1184595184137881796</dc:source><dcterms:license xsi:type="dcterms:URI">https://creativecommons.org/licenses/by/4.0/</dcterms:license><dc:rights>Remix of „Adventurer” (https://www.figma.com/community/file/1184595184137881796) by „Lisa Wischofsky”, licensed under „CC BY 4.0” (https://creativecommons.org/licenses/by/4.0/)</dc:rights></rdf:Description></rdf:RDF></metadata><mask id="viewboxMask"><rect width="762" height="762" rx="0" ry="0" x="0" y="0" fill="#fff" /></mask><g mask="url(#viewboxMask)"><rect fill="#ffd5dc" width="762" height="762" x="0" y="0" /><path d="M396 164.8a224.8 224.8 0 0 1 104.8 42.4c6.2 4.9 12.5 9.4 18 15a225.4 225.4 0 0 1 71.8 149 58.5 58.5 0 0 1 50.9 42.2 71 71 0 0 1-27.6 76.5c-11 7.7-24.5 12-38 11.7-5 0-10-1.6-15-1.8-1.9 2.2-3.3 4.9-4.8 7.3A223.3 223.3 0 0 1 389 609.8c-11 .7-21.9 2-33 .7a223.7 223.7 0 0 1-178.8-342.3A223.4 223.4 0 0 1 352 163.5c14.6-1.4 29.4-.3 44 1.3Z" fill="#000"/><path fill-rule="evenodd" clip-rule="evenodd" d="M498.8 213.2A216 216 0 0 0 363 169c-13-.2-26.2 1.6-39 4a218 218 0 0 0-113.6 365.5 218.5 218.5 0 0 0 260.4 40.2c35-18.8 64.2-47.3 84.4-81.5l-3-1.6c-2.8-1.4-5.7-3-8-5-2.2-2-.3-5.8 2.7-4.7 1.5.7 3 1.6 4.4 2.4a55 55 0 0 0 59.6-3.6 64.5 64.5 0 0 0 25-69.8 53.1 53.1 0 0 0-24-31 52.6 52.6 0 0 0-47-2.8c-1.6.8-3.4 1.5-5 1.3-2.5-.2-2.8-4.2-.6-5.2 8-4 16.5-5.6 25.4-6.4a217 217 0 0 0-72-146.4c-4.4-4-8.7-8.1-13.9-11.3Zm107.6 196.2c2-1.2 1.3-5.1-1.4-5-2 0-4.2.8-6.2 1.6l-1.4.4a95.1 95.1 0 0 0-25.5 12.4c-2.2 2-2.2 4.4.1 6.2a92 92 0 0 0 5.2 2.8 36 36 0 0 1 13 9.2c-.2 1.9-2 3.4-3.4 4.5l-.2.2c-3.9 3-8.8 5-13.6 7-2.5 1-4.9 2-7.1 3.1-1.7.8-2.6 2.2-1.6 3.9 1 2 3.2 1.1 5 .5l.6-.2 5.4-2.3c5.4-2.3 11-4.5 15.4-8 2.7-2.1 5.1-5.1 5.4-8.7-.5-3.4-2.7-5.7-5.3-7.8a83 83 0 0 0-11.6-7.2l-1.1-.6c5.4-3 10.8-5.6 16.6-7.7l5-1.7a52 52 0 0 0 6.7-2.6Z" fill="#f2d3b1"/><g transform="translate(-161 -83)"><path d="m619.9 481.8 2.6 1.1-.5 3c-2.2 3.9-6 7-9 10.1a85.5 85.5 0 0 1-65 21.3 111.3 111.3 0 0 1-54.2-21.1c-1.4-1.1-2.9-2-2.4-4 .5-2.5 4-3.4 6-2.5 21.3 6.3 42.7 6.7 64.6 5.4 16.3-1.5 32-4.2 47.5-9.6 3.6-1.2 6.8-2.8 10.4-3.7ZM440.6 492.4c2.8 1.4 2.2 4.5 0 6.2a79.3 79.3 0 0 1-39.6 18.8c-7.8 1-15.1 2.3-23 1.1a84.8 84.8 0 0 1-39-12.5c-2.1-1.4-4.7-2.9-6.2-5-.6-2.5.7-3.9 3.2-4.2 2.7.3 5.4 1.4 8 2 7.6 2.2 15.3 3 23 3.8a169 169 0 0 0 64.2-7.5c3-.8 6.3-3 9.4-2.7Z" fill="#000"/></g><g transform="translate(-161 -83)"><path d="M502 385c9.9 0 19.9 3.2 28.8 7.3 3.4 1.8 7 4 7.3 8.3-5.1-.9-10.1-2.1-15.4-2.3a58.7 58.7 0 0 0-33.2 7.2c-2.5 1.4-5 3.3-7.6 4.4-1.8.2-4-2-4-3.8-.2-5.8 2-11.9 6.6-15.7A27 27 0 0 1 502 385ZM414 402.6c5.8.2 11 5.3 12.5 10.6.8 2.7-.4 5.8-3.5 5.7-8.8.2-18.2 0-26.8 2.2-7.5 2-14.7 6.7-21.4 10.8-1.2.8-2.5 1-4 1.2.4-2 .7-3.7 2-5.2 3.3-4.4 6.8-8.6 10.7-12.3 6-5.2 13-9 20.4-11.7 3.2-1.1 6.7-1.6 10.1-1.3Z" fill="#000"/></g><g transform="translate(-161 -83)"><path d="M526 559.6c18 0 37.2 2.1 54 9-52.2 7.3-107.2 15.2-159 22.3 8-7 17.7-12.3 27.4-16.5A79.3 79.3 0 0 1 488 567c1 .1 1.9 0 2.7-.4 10.2-5.9 23.7-6.6 35.3-7Z" fill="#D31E1E"/><path d="M580 568.7c2.4 1 2 3.4 1.4 5.4a92 92 0 0 1-28.4 34 96.5 96.5 0 0 1-60 17.5c-26.8-1-53-12-73.4-29.3-.4-2.4-.5-3.7 1.4-5.4 51.8-7.1 106.8-15 159-22.2Z" fill="#000"/><path d="M581.4 574.1c-1.1 4.6-1.9 9.2-3.7 13.7-5.3 13.9-16 25.4-28.4 33.5a103.3 103.3 0 0 1-45.3 16 96 96 0 0 1-58-11.3 60.6 60.6 0 0 1-26.4-29.7 122.1 122.1 0 0 0 73.4 29.3 92 92 0 0 0 88.4-51.5Z" fill="#D31E1E"/><path d="M573.9 575.5c-8.2 15-21 27.5-36.4 35a89.2 89.2 0 0 1-40.5 9.2c-24.7.2-49-9-68.6-23.9 48-6.6 97.8-13.8 145.5-20.3Z" fill="#fff"/></g><g transform="translate(-161 -83)"></g><g transform="translate(-161 -83)"><path fill-rule="evenodd" clip-rule="evenodd" d="M577 416.1a79.9 79.9 0 0 1 39 141 79.6 79.6 0 0 1-92.5 6.4 80 80 0 0 1-38.2-69.3c-5-5.3-10.7-9.6-18.3-9.7-7.8.1-14.3 5.7-17.2 12.6.7 6.7 1.5 13.3.6 20a69.8 69.8 0 0 1-135.8 15.3 69.7 69.7 0 0 1 21-75.7 71 71 0 0 1 46.4-16.8 69.8 69.8 0 0 1 65 47.4c4.9-5.7 11.3-10 19-10 7.4-.3 14.2 2.6 19.7 7.3 1.7-8.7 3.8-17 8-25a80 80 0 0 1 83.3-43.5Zm-25.5 7.8a72.4 72.4 0 0 1 85.9 80 72.7 72.7 0 1 1-85.9-80Zm-147.4 28a62.6 62.6 0 1 0-37.9 118.9c15.5 3.4 32.1 1.3 45.9-6.7a63.3 63.3 0 0 0 30-41.9 62.7 62.7 0 0 0-38-70.4Z" fill="#000"/></g><g transform="translate(-161 -83)"><path d="M559 229c42.7 5.5 86.5 17 124.8 37.2 25.9 13.7 50.7 32.2 67 56.9 4.1 5.7 6 12 8.6 18.4 4.8 12 7.7 24 11 36.5 8 31 18 61.6 29 91.6 12.8 35 27.1 69.2 43.5 102.5 1.4 2.9 3 5.6 4.6 8.4.8 1.3 1 2.7 0 4a64 64 0 0 1-16 13 226 226 0 0 1-39.7 19.1A423.3 423.3 0 0 1 679 642.4c-3.9.3-7 1.3-10.6-1 .4-2.5.4-4.6 2.5-6.4 5.5-5 11-10.2 16.2-15.8a402.6 402.6 0 0 1-64.6 27.4c-2.9.8-6.5 2.3-9.5 1.6-1.9-.9-2.1-2.8-1.4-4.6 8.7-19.2 12.2-41.7 15-62.5a579 579 0 0 0 4.4-70c.1-18.2 0-36.5-1.8-54.6-37.5-3.9-74.6-15-108.8-30.9-24.2-11.4-48-25.9-68-43.9a157.3 157.3 0 0 1-23.4-26c-1.2 9.4-1 18.9-.9 28.4 0 3.6.3 7.1 1.3 10.6.3 1.7 1.2 3.3 0 4.8-1.1 1.7-3.7 1.1-5.4.6a57.4 57.4 0 0 1-30.4-25.6 73.7 73.7 0 0 1-10.1-40.4A181.7 181.7 0 0 0 351 366a269 269 0 0 0-32.6 48.4 36.7 36.7 0 0 0-3.4 8.5 218.3 218.3 0 0 0 92.4 228.6c1.2.8 2.4 1.6 3.5 2.6.7 1.7 1 3-.4 4.5-2.4 1.4-5.3 2-8 3-22 6.8-44 13.4-65.7 21.3-21.9 8-43.2 17.6-65.2 25.5-1.4-1-2.4-2-3.3-3.4 3.6-7.7 9.3-14 12.5-22.1 9.8-24.3 10-51.2 9.3-77 0-14.7-1.2-29.3-1.9-44-1.4-21.7-2.6-43.3-3.3-65-.6-27.3-2.1-55.7-.1-83 1.4-22 5.4-44.2 13-65a61 61 0 0 1 13.4-21.7c4.9-5 9.8-10.2 15.2-14.8 5.3-4.5 11-8.3 16.4-12.6 15.9-12.5 31-25.7 47-38a225.5 225.5 0 0 1 51-31 60.4 60.4 0 0 1 21.1-4.6 496 496 0 0 1 97 2.7Z" fill="#000"/><path d="M512 231.2c48 1.5 97.4 9.8 142.2 27.7a248 248 0 0 1 57.3 31.5 148 148 0 0 1 35.3 36.9c2.9 4.4 5 9.2 6.6 14.2 2.5 7.9 6 15.3 7.7 23.5 8.5 35 19.4 69.3 31.6 103.2 13.4 36.6 28.2 72.8 45.6 107.6 1 2.2 2.2 4.3 3.6 6.4a96.3 96.3 0 0 1-21.5 15.2 332 332 0 0 1-68.7 26.1c-24.3 6.7-49 11.4-74.2 13.2 8-7.1 15.4-14.7 22.2-23 1.4-1.7 2.9-3.1 4.8-4.2 6.2-3.7 12.3-7.6 18.1-11.8 1.4-1 2.2-2.4 3-3.8-1-1.2-1.7-2.4-3.6-2.4-3 1.3-5.5 3.5-8.2 5.3a387.7 387.7 0 0 1-94.8 44.6c5.5-14.5 8.8-30.1 11.3-45.4 4-24.8 5.8-49.8 6.5-75 .5-33.6-.5-66.7-6-100-.2-1.6-.8-3.6-2.8-3.4-3-.2-3.1 2.4-2.8 4.6 1.6 9.4 2.8 19 3.6 28.4-34.3-4-67.8-13.4-99.3-27.3-21.3-9.5-42-21.1-60.5-35.3-11.5-8.9-22.5-19.1-31.3-30.6-2.4-3.2-4.2-6.3-7.2-8.9-1.3-1.4-2.8-1-4.5-.7-2 2-2.3 4.5-2.6 7.2a157 157 0 0 0-.2 38.4c-7.3-2.8-13.8-8-18.8-13.8A66.9 66.9 0 0 1 398 304c1.1-1.9 1.4-4.3-.9-5.4-2.3-.3-2.9.7-4 2.4a68.5 68.5 0 0 0-9.3 26.7c-12.5 7.4-23 18.7-32.7 29.4a337.3 337.3 0 0 0-25.4 33.5 200.6 200.6 0 0 0-23.4 47.6 99.9 99.9 0 0 0-4 17.9c0 2.9 2.9 4.1 5 2.2.7-1.6 1-3.3 1.5-5a223.8 223.8 0 0 0 98 202.2c-25.3 8-51.7 15.7-76.8 25.4-16.3 6.2-32.2 13.3-48.5 19.8 4.8-7.1 9-14.5 11.4-22.7 8.2-25.3 7.6-51.8 7.1-78-.8-11.4-.8-22.7-1.7-34-.8-10.3-1-20.7-2-31-.6-13-1-26-1.7-39-.7-23.3-.6-46.7-.5-70 .5-22.2 3.5-44.4 9.6-65.8 1.7-5.8 4.4-11.1 7-16.6 4-8.4 10.3-13.8 16.7-20.2 5.8-6 12.4-11 19.1-15.9 27.3-20.9 53.8-46.3 83.8-63.2a99.5 99.5 0 0 1 22.7-10c7.3-2.1 14.4-2.3 22-2.7 13.6-.8 27.4-.5 41-.4Z" fill="#afafaf"/></g><g transform="translate(-161 -83)"></g></g></svg>