<svg xmlns="http://www.w3.org/2000/svg" viewBox="0 0 762 762" fill="none" shape-rendering="auto"><metadata xmlns:rdf="http://www.w3.org/1999/02/22-rdf-syntax-ns#" xmlns:xsi="http://www.w3.org/2001/XMLSchema-instance" xmlns:dc="http://purl.org/dc/elements/1.1/" xmlns:dcterms="http://purl.org/dc/terms/"><rdf:RDF><rdf:Description><dc:title>Adventurer</dc:title><dc:creator>Lisa Wischofsky</dc:creator><dc:source xsi:type="dcterms:URI">https://www.figma.com/community/file/1184595184137881796</dc:source><dcterms:license xsi:type="dcterms:URI">https://creativecommons.org/licenses/by/4.0/</dcterms:license><dc:rights>Remix of „Adventurer” (https://www.figma.com/community/file/1184595184137881796) by „Lisa Wischofsky”, licensed under „CC BY 4.0” (https://creativecommons.org/licenses/by/4.0/)</dc:rights></rdf:Description></rdf:RDF></metadata><mask id="viewboxMask"><rect width="762" height="762" rx="0" ry="0" x="0" y="0" fill="#fff" /></mask><g mask="url(#viewboxMask)"><rect fill="#ffdfbf" width="762" height="762" x="0" y="0" /><path d="M396 164.8a224.8 224.8 0 0 1 104.8 42.4c6.2 4.9 12.5 9.4 18 15a225.4 225.4 0 0 1 71.8 149 58.5 58.5 0 0 1 50.9 42.2 71 71 0 0 1-27.6 76.5c-11 7.7-24.5 12-38 11.7-5 0-10-1.6-15-1.8-1.9 2.2-3.3 4.9-4.8 7.3A223.3 223.3 0 0 1 389 609.8c-11 .7-21.9 2-33 .7a223.7 223.7 0 0 1-178.8-342.3A223.4 223.4 0 0 1 352 163.5c14.6-1.4 29.4-.3 44 1.3Z" fill="#000"/><path fill-rule="evenodd" clip-rule="evenodd" d="M498.8 213.2A216 216 0 0 0 363 169c-13-.2-26.2 1.6-39 4a218 218 0 0 0-113.6 365.5 218.5 218.5 0 0 0 260.4 40.2c35-18.8 64.2-47.3 84.4-81.5l-3-1.6c-2.8-1.4-5.7-3-8-5-2.2-2-.3-5.8 2.7-4.7 1.5.7 3 1.6 4.4 2.4a55 55 0 0 0 59.6-3.6 64.5 64.5 0 0 0 25-69.8 53.1 53.1 0 0 0-24-31 52.6 52.6 0 0 0-47-2.8c-1.6.8-3.4 1.5-5 1.3-2.5-.2-2.8-4.2-.6-5.2 8-4 16.5-5.6 25.4-6.4a217 217 0 0 0-72-146.4c-4.4-4-8.7-8.1-13.9-11.3Zm107.6 196.2c2-1.2 1.3-5.1-1.4-5-2 0-4.2.8-6.2 1.6l-1.4.4a95.1 95.1 0 0 0-25.5 12.4c-2.2 2-2.2 4.4.1 6.2a92 92 0 0 0 5.2 2.8 36 36 0 0 1 13 9.2c-.2 1.9-2 3.4-3.4 4.5l-.2.2c-3.9 3-8.8 5-13.6 7-2.5 1-4.9 2-7.1 3.1-1.7.8-2.6 2.2-1.6 3.9 1 2 3.2 1.1 5 .5l.6-.2 5.4-2.3c5.4-2.3 11-4.5 15.4-8 2.7-2.1 5.1-5.1 5.4-8.7-.5-3.4-2.7-5.7-5.3-7.8a83 83 0 0 0-11.6-7.2l-1.1-.6c5.4-3 10.8-5.6 16.6-7.7l5-1.7a52 52 0 0 0 6.7-2.6Z" fill="#d08b5b"/><g transform="translate(-161 -83)"><path d="M589.3 432.7a64.4 64.4 0 0 1 28.5 33.5 64.3 64.3 0 0 1 .5 45.1c-1 2.9-2.9 5.2-6.3 4.8-15-.8-30 .1-45 .5-10 1.1-20 2.2-30 3.8-10.5 1.8-20.6 4.1-31 6.1-4.3-.1-5.3-4.2-7.2-7.3A65.5 65.5 0 0 1 546 425c14.8-2.6 30.5.2 43.4 7.7Z" fill="#000"/><path d="M558 429.9a59.1 59.1 0 0 1 54.4 80.6l-3.2-.3a27 27 0 0 0 1.3-15.4 26.6 26.6 0 1 0-50 16.9 287 287 0 0 0-34 5.2c-6.7 1.2-13.4 3.2-20.1 4A59.8 59.8 0 0 1 517 445a59 59 0 0 1 41-15.1Z" fill="#fff"/><path d="M392 447a54.8 54.8 0 0 1 42.8 81.9c-1.1 1.9-2.9 4-5 4.7-3 .8-6.6-.2-9.6-.9-8.7-2-17.4-3.8-26.3-5.1-12.9-.9-26-1-39 0-4.7.4-9.7 1.4-14.5 1-2.3-1-3.7-4.2-4.6-6.4a54.9 54.9 0 0 1 56.2-75Z" fill="#000"/><path d="M401.5 454.7a49.3 49.3 0 0 1 26.7 74l-4.1-.7c4.1-4.4 7-9.8 6.8-16a22.6 22.6 0 0 0-43.7-8.8c-2.5 5.9-1.9 12 .4 18-7.6.2-15-.4-22.6.3-7.3.7-14.7 1.2-22 1.8l-1.9-3.4a49.2 49.2 0 0 1 60.4-65.2Z" fill="#fff"/></g><g transform="translate(-161 -83)"><path d="M607 397.6c1.5-.4 3.2.6 4.7 1 0 1.2-.1 2.4-.4 3.6-1.6 1.5-3.6 2.6-5.4 3.8a803.6 803.6 0 0 1-70.4 40.6A289.9 289.9 0 0 1 500 462a50 50 0 0 1-21 3.5c-3.3-.4-6.2-3-6.2-6.5 0-4.2 3-8.6 5-12.1 1.3-2.7 4.5-3 7-4.1l111.7-41.5c3.5-1.2 7-2.8 10.5-3.7ZM339 432.6l90 18c2.3.4 4.6.1 6.9.5 2.4 2.3 3.6 6.2 4.5 9.4 1.2 4-.1 8.8-4 11-4 2.6-9.8 2.1-14.4 1.9-8.8-1-17.4-3.8-25.7-6.8a418 418 0 0 1-57-27c-1.6-.9-3.6-1.9-4.8-3.5-.3-2.9 1.9-4.1 4.5-3.5Z" fill="#000"/></g><g transform="translate(-161 -83)"><path d="M526 559.6c18 0 37.2 2.1 54 9-52.2 7.3-107.2 15.2-159 22.3 8-7 17.7-12.3 27.4-16.5A79.3 79.3 0 0 1 488 567c1 .1 1.9 0 2.7-.4 10.2-5.9 23.7-6.6 35.3-7Z" fill="#D31E1E"/><path d="M580 568.7c2.4 1 2 3.4 1.4 5.4a92 92 0 0 1-28.4 34 96.5 96.5 0 0 1-60 17.5c-26.8-1-53-12-73.4-29.3-.4-2.4-.5-3.7 1.4-5.4 51.8-7.1 106.8-15 159-22.2Z" fill="#000"/><path d="M581.4 574.1c-1.1 4.6-1.9 9.2-3.7 13.7-5.3 13.9-16 25.4-28.4 33.5a103.3 103.3 0 0 1-45.3 16 96 96 0 0 1-58-11.3 60.6 60.6 0 0 1-26.4-29.7 122.1 122.1 0 0 0 73.4 29.3 92 92 0 0 0 88.4-51.5Z" fill="#D31E1E"/><path d="M573.9 575.5c-8.2 15-21 27.5-36.4 35a89.2 89.2 0 0 1-40.5 9.2c-24.7.2-49-9-68.6-23.9 48-6.6 97.8-13.8 145.5-20.3Z" fill="#fff"/></g><g transform="translate(-161 -83)"></g><g transform="translate(-161 -83)"></g><g transform="translate(-161 -83)"><g fill="#000"><path d="M546 236.8a220 220 0 0 1 141.8 52.3 189.7 189.7 0 0 1 60.4 97.9c5.5 21.9 6.6 44.4 4.3 66.8-.4 1.8-.5 5.6-3 5.6-4.2.2-8.5 0-12.7 1.2a64.9 64.9 0 0 0-31.2 17c-1 1-2 2.2-3.6 1.8-1.6 0-2.3-2-2.1-3.4.3-3 1.5-6 2.1-9 1.6-6.7 1.9-13.2 2.5-20 .6-6.8-.3-13.3-.9-20-.4-3.8-1.2-7.3-2-11a54.2 54.2 0 0 1-26.5-7c-15.8-9-27.3-25-35.5-40.8-9.8-19-16-40-20.2-60.8a441.8 441.8 0 0 1-91.2 25.9 561.7 561.7 0 0 1-101.2 9 386 386 0 0 1-71.2-6c-2-.4-3.5-1.1-3.6-3.3 1-3.8 4-7.3 6.5-10.3 9-11 19-21 29.9-30.1A242 242 0 0 1 546 236.8Z"/><path d="M718.6 474.6c0 1 .3 2.7-.5 3.5-2.2 2.4-5.1 4.2-7.6 6.4-2.6 2.2-4.8 4.9-7.5 6.9-2.7.5-4-2-2.7-4.1 2.7-3.8 6.7-6.8 10.2-9.8 2.7-2 4.5-4.7 8-3Z"/></g><path d="M520.2 243.8c41.3-4.2 83.5 2.8 120.8 21.2a194.1 194.1 0 0 1 79.2 70.7 181 181 0 0 1 26.4 118 68 68 0 0 0-38.6 14c2.8-16.5 3.5-33.4 0-49.8-.7-2.4-1.2-5.3-2.8-7.1-1.6-1.2-4.3-.8-6.2-1-8 .2-16-2.8-22.9-7a87.5 87.5 0 0 1-27.6-30.3 211 211 0 0 1-22.2-60.5c-.8-3.3-1.1-6.8-2.3-10-.9-1.4-2.4-1.8-4-1.2-3.6 1.3-7.1 3-10.7 4.3a443.8 443.8 0 0 1-82.3 22.5 588.4 588.4 0 0 1-81 8.7c-14.6.2-29.4.4-44-.4-14.3-1-28.4-2.4-42.5-4.8a232.8 232.8 0 0 1 160.7-87.3Z" fill="#b9a05f"/></g><g transform="translate(-161 -83)"></g></g></svg>