<?xml version="1.0" encoding="utf-8"?>
<svg xmlns="http://www.w3.org/2000/svg" viewBox="0 0 128 128">
  <circle cx="26" cy="30" r="10" fill="#A1887F" />
  <circle cx="102" cy="30" r="10" fill="#A1887F" />
  <line x1="34" y1="28" x2="24" y2="4" stroke="#6D4C41" stroke-width="3" stroke-linecap="round" />
  <line x1="28" y1="14" x2="18" y2="6" stroke="#6D4C41" stroke-width="2.5" stroke-linecap="round" />
  <line x1="30" y1="20" x2="38" y2="10" stroke="#6D4C41" stroke-width="2.5" stroke-linecap="round" />
  <line x1="94" y1="28" x2="104" y2="4" stroke="#6D4C41" stroke-width="3" stroke-linecap="round" />
  <line x1="100" y1="14" x2="110" y2="6" stroke="#6D4C41" stroke-width="2.5" stroke-linecap="round" />
  <line x1="98" y1="20" x2="90" y2="10" stroke="#6D4C41" stroke-width="2.5" stroke-linecap="round" />
  <rect x="20" y="24" width="88" height="88" rx="28" ry="28" fill="#A1887F" />
  <circle cx="36" cy="78" r="9" fill="#D7CCC8" opacity="0.6" />
  <circle cx="92" cy="78" r="9" fill="#D7CCC8" opacity="0.6" />
  <path d="M38 64 Q46 56 54 64" stroke="#2C2C2C" stroke-width="3.5" fill="none" stroke-linecap="round" />
  <path d="M74 64 Q82 56 90 64" stroke="#2C2C2C" stroke-width="3.5" fill="none" stroke-linecap="round" />
  <ellipse cx="64" cy="74" rx="4" ry="3" fill="#6D4C41" />
  <path d="M50 82 Q64 96 78 82" stroke="#2C2C2C" stroke-width="2.5" fill="none" stroke-linecap="round" />
  <path d="M52 83 Q64 94 76 83" fill="#E53935" opacity="0.3" />
</svg>
