<?xml version="1.0" encoding="utf-8"?>
<svg xmlns="http://www.w3.org/2000/svg" viewBox="0 0 128 128">
  <circle cx="26" cy="30" r="10" fill="#A1887F" />
  <circle cx="102" cy="30" r="10" fill="#A1887F" />
  <line x1="34" y1="28" x2="24" y2="4" stroke="#6D4C41" stroke-width="3" stroke-linecap="round" />
  <line x1="28" y1="14" x2="18" y2="6" stroke="#6D4C41" stroke-width="2.5" stroke-linecap="round" />
  <line x1="30" y1="20" x2="38" y2="10" stroke="#6D4C41" stroke-width="2.5" stroke-linecap="round" />
  <line x1="94" y1="28" x2="104" y2="4" stroke="#6D4C41" stroke-width="3" stroke-linecap="round" />
  <line x1="100" y1="14" x2="110" y2="6" stroke="#6D4C41" stroke-width="2.5" stroke-linecap="round" />
  <line x1="98" y1="20" x2="90" y2="10" stroke="#6D4C41" stroke-width="2.5" stroke-linecap="round" />
  <rect x="20" y="24" width="88" height="88" rx="28" ry="28" fill="#A1887F" />
  <circle cx="36" cy="78" r="9" fill="#D7CCC8" opacity="0.6" />
  <circle cx="92" cy="78" r="9" fill="#D7CCC8" opacity="0.6" />
  <circle cx="46" cy="62" r="10" fill="white" />
  <circle cx="82" cy="62" r="10" fill="white" />
  <circle cx="46" cy="63" r="5" fill="#2C2C2C" />
  <circle cx="82" cy="63" r="5" fill="#2C2C2C" />
  <circle cx="48" cy="61" r="2" fill="white" />
  <circle cx="84" cy="61" r="2" fill="white" />
  <ellipse cx="64" cy="74" rx="4" ry="3" fill="#6D4C41" />
  <ellipse cx="64" cy="88" rx="7" ry="9" fill="#2C2C2C" />
</svg>
